# xmcd
#
# Track frame offsets:
#	150
#	15914
#	35167
#	54610
#	78950
#	101798
#	116773
#	136875
#	169212
#	201728
#	220791
#	242224
#
# Disc length: 3615 seconds
#
# Revision: 0
# Processed by: cddbd v1.5PL3 Copyright (c) Steve Scherf et al.
# Submitted via: EasyCDDAExtractor 5.0.2.1
#
DISCID=ad0e1d0c
DTITLE=Popa Chubby - Peace, Love and Respect
DYEAR=2004
DGENRE=Blues
TTITLE0=Top Ten Reasons Why I Can't Sleep At Night
TTITLE1=Life Is A Beatdown
TTITLE2=Like The Buddha Do
TTITLE3=Un-American Blues
TTITLE4=Young Men
TTITLE5=Keep On The Sunny Side Of Life
TTITLE6=The Man On The News
TTITLE7=I'm Not Afraid
TTITLE8=Sweet Release
TTITLE9=The Devil Gonna Drag You Down
TTITLE10=See You In Sete
TTITLE11=Midnight Ride - Peace
EXTD=
EXTT0=
EXTT1=
EXTT2=
EXTT3=
EXTT4=
EXTT5=
EXTT6=
EXTT7=
EXTT8=
EXTT9=
EXTT10=
EXTT11=
PLAYORDER=
